# xmcd
#
# Track frame offsets:
#	150
#	17541
#	45381
#
# Disc length: 1473 seconds
#
# Revision: 0
# Processed by: cddbd v1.5.1PL2 Copyright (c) Steve Scherf et al.
# Submitted via: dBpowerAMP V4.0
#
DISCID=1505bf03
DTITLE=Various Artist - CD Single
DYEAR=1900
DGENRE=
TTITLE0=Stay Gone-LP Version
TTITLE1=Jimmy Wayne - Stay Gone-Piano Vocal
TTITLE2=DATA
EXTD=CD Single versions\n\n
EXTT0=
EXTT1=
EXTT2=
PLAYORDER=
